<!DOCTYPE svg PUBLIC "-//W3C//DTD SVG 1.1//EN" "http://www.w3.org/Graphics/SVG/1.1/DTD/svg11.dtd">
<!-- Uploaded to: SVG Repo, www.svgrepo.com, Transformed by: SVG Repo Mixer Tools -->
<svg height="256px" width="256px" version="1.1" id="Layer_1" xmlns="http://www.w3.org/2000/svg" xmlns:xlink="http://www.w3.org/1999/xlink" viewBox="0 0 512.00 512.00" xml:space="preserve" fill="#000000">
<g id="SVGRepo_bgCarrier" stroke-width="0"/>
<g id="SVGRepo_tracerCarrier" stroke-linecap="round" stroke-linejoin="round"/>
<g id="SVGRepo_iconCarrier"> <path style="fill:#ff0000;" d="M503.073,166.531v178.986c0,18.122-14.705,32.816-32.828,32.816H41.749 c-18.122,0-32.816-14.693-32.816-32.816V166.531c0-18.122,14.693-32.816,32.816-32.816h428.496 C488.368,133.715,503.073,148.409,503.073,166.531z"/> <path style="fill:#F2F2F2;" d="M503.073,166.531v178.986c0,18.122-14.705,32.816-32.828,32.816H238.715l74.276-244.617h157.255 C488.368,133.715,503.073,148.409,503.073,166.531z"/> <path d="M470.247,124.758h-68.064c-4.932,0-8.93,3.998-8.93,8.93s3.998,8.93,8.93,8.93h68.064c13.174,0,23.893,10.719,23.893,23.894 v178.976c0,13.175-10.719,23.894-23.893,23.894H41.754c-13.175,0-23.894-10.719-23.894-23.894v-12.423c0-4.932-3.998-8.93-8.93-8.93 S0,328.134,0,333.066v12.423c0,23.023,18.731,41.754,41.754,41.754h428.493c23.022,0,41.753-18.731,41.753-41.754V166.512 C512,143.489,493.269,124.758,470.247,124.758z"/> <path d="M8.93,312.228c4.932,0,8.93-3.998,8.93-8.93V166.512c0-13.175,10.719-23.894,23.894-23.894h330.661 c4.932,0,8.93-3.998,8.93-8.93s-3.998-8.93-8.93-8.93H41.754C18.731,124.758,0,143.489,0,166.512v136.786 C0,308.23,3.998,312.228,8.93,312.228z"/> <path d="M100.319,216.923c10.602,0,19.227,8.625,19.227,19.227c0,4.932,3.998,8.93,8.93,8.93c4.932,0,8.93-3.998,8.93-8.93 c0-20.45-16.638-37.088-37.088-37.088S63.231,215.7,63.231,236.15v39.699c0,20.45,16.638,37.088,37.088,37.088 s37.088-16.636,37.088-37.088c0-4.932-3.998-8.93-8.93-8.93c-4.932,0-8.93,3.998-8.93,8.93c0,10.602-8.625,19.227-19.227,19.227 s-19.227-8.625-19.227-19.227v-39.698C81.091,225.548,89.717,216.923,100.319,216.923z"/> <path d="M215.747,236.151v39.699c0,20.45,16.638,37.088,37.088,37.088c20.45,0,37.088-16.638,37.088-37.088v-39.699 c0-20.45-16.638-37.088-37.088-37.088C232.385,199.063,215.747,215.7,215.747,236.151z M272.064,236.151v39.699 c0,10.602-8.625,19.227-19.227,19.227c-10.602,0-19.227-8.625-19.227-19.227v-39.699c0-10.602,8.625-19.227,19.227-19.227 C263.438,216.924,272.064,225.548,272.064,236.151z"/> <path d="M161.978,199.062c-4.932,0-8.93,3.998-8.93,8.93v96.014c0,4.932,3.998,8.93,8.93,8.93h38.375c4.932,0,8.93-3.998,8.93-8.93 c0-4.932-3.998-8.93-8.93-8.93h-29.445v-87.084C170.908,203.06,166.91,199.062,161.978,199.062z"/> <path d="M395.756,312.938h44.084c4.932,0,8.93-3.998,8.93-8.93c0-4.932-3.998-8.93-8.93-8.93h-35.154V264.93h19.227 c4.932,0,8.93-3.998,8.93-8.93c0-4.932-3.998-8.93-8.93-8.93h-19.227v-30.147h35.154c4.932,0,8.93-3.998,8.93-8.93 s-3.998-8.93-8.93-8.93h-44.084c-4.932,0-8.93,3.998-8.93,8.93v96.014C386.826,308.94,390.823,312.938,395.756,312.938z"/> <path d="M338.473,216.923h24.004c4.932,0,8.93-3.998,8.93-8.93s-3.998-8.93-8.93-8.93h-24.004 c-18.159,0-32.934,14.774-32.934,32.934s14.774,32.934,32.934,32.934c8.311,0,15.074,6.762,15.074,15.073 s-6.762,15.073-15.074,15.073h-24.003c-4.932,0-8.93,3.998-8.93,8.93c0,4.932,3.998,8.93,8.93,8.93h24.003 c18.159,0,32.935-14.774,32.935-32.934c0-18.159-14.774-32.934-32.935-32.934c-8.311,0-15.073-6.762-15.073-15.073 S330.161,216.923,338.473,216.923z"/> <circle cx="469.123" cy="344.064" r="8.93"/> <circle cx="469.123" cy="167.936" r="8.93"/> <circle cx="42.865" cy="167.936" r="8.93"/> <circle cx="42.865" cy="344.064" r="8.93"/> </g>
</svg>