<svg xmlns="http://www.w3.org/2000/svg" shape-rendering="geometricPrecision" text-rendering="geometricPrecision" image-rendering="optimizeQuality" fill-rule="evenodd" clip-rule="evenodd" viewBox="0 0 512 512"><path fill="#333" fill-rule="nonzero" d="M501.384 245.385c5.863 0 10.616 4.754 10.616 10.616 0 5.863-4.753 10.616-10.616 10.616H324.572c.531-3.462.807-7.007.807-10.616s-.276-7.156-.807-10.616h176.812zM285.722 46.519c46.527 6.541 88.195 28.219 119.867 59.892 31.673 31.673 53.351 73.34 59.892 119.867h-21.469c-6.376-40.655-25.619-77.043-53.434-104.856-27.813-27.814-64.201-47.057-104.856-53.434V46.519zM465.48 285.724c-6.543 46.525-28.218 88.196-59.891 119.867-31.671 31.671-73.34 53.349-119.867 59.892v-21.471c40.655-6.376 77.044-25.621 104.856-53.432 27.815-27.813 47.058-64.201 53.434-104.856h21.468zM226.276 465.482c-46.525-6.543-88.196-28.22-119.867-59.891-31.673-31.671-53.347-73.342-59.89-119.867h21.468c6.376 40.655 25.619 77.043 53.433 104.856 27.812 27.811 64.201 47.056 104.856 53.432v21.47zM46.517 226.278c6.542-46.527 28.219-88.194 59.892-119.867 31.671-31.673 73.342-53.348 119.867-59.89v21.467c-40.655 6.377-77.042 25.62-104.856 53.434-27.814 27.813-47.057 64.201-53.433 104.856h-21.47zm239.205-107.473c26.828 5.785 50.805 19.239 69.519 37.954 18.716 18.714 32.169 42.691 37.954 69.519h-21.814c-5.383-20.954-16.321-39.677-31.151-54.507-14.83-14.831-33.554-25.767-54.508-31.15v-21.816zm107.473 166.919c-5.785 26.828-19.238 50.805-37.954 69.519-18.714 18.714-42.691 32.167-69.519 37.954v-21.814c20.953-5.383 39.678-16.321 54.508-31.151 14.83-14.83 25.768-33.555 31.151-54.508h21.814zM226.276 393.197c-26.828-5.787-50.805-19.24-69.519-37.954-18.714-18.714-32.167-42.691-37.954-69.519h21.814c5.383 20.953 16.322 39.678 31.152 54.508 14.83 14.83 33.555 25.768 54.507 31.151v21.814zM118.803 226.278c5.787-26.828 19.24-50.805 37.954-69.519 18.714-18.715 42.691-32.169 69.519-37.954v21.816c-20.952 5.383-39.677 16.319-54.507 31.15-14.83 14.83-25.769 33.555-31.152 54.507h-21.814zm147.812 98.296v176.811c0 5.862-4.753 10.615-10.616 10.615-5.862 0-10.616-4.753-10.616-10.615V324.574c3.462.531 7.007.807 10.616.807s7.156-.276 10.616-.807zm-79.188-57.957H10.616C4.754 266.617 0 261.864 0 256.001c0-5.862 4.754-10.616 10.616-10.616h176.811a69.968 69.968 0 00-.807 10.616c0 3.609.276 7.154.807 10.616zm57.956-79.188V10.616C245.383 4.754 250.137 0 255.999 0c5.863 0 10.616 4.754 10.616 10.616v176.813a69.967 69.967 0 00-10.616-.808c-3.609 0-7.154.277-10.616.808z"/><path fill="#E5273A" d="M255.999 205.728c27.765 0 50.273 22.508 50.273 50.273 0 27.765-22.508 50.273-50.273 50.273-27.765 0-50.272-22.508-50.272-50.273 0-27.765 22.507-50.273 50.272-50.273z"/></svg>