<!DOCTYPE svg PUBLIC "-//W3C//DTD SVG 1.1//EN" "http://www.w3.org/Graphics/SVG/1.1/DTD/svg11.dtd">
<!-- Uploaded to: SVG Repo, www.svgrepo.com, Transformed by: SVG Repo Mixer Tools -->
<svg version="1.1" id="Layer_1" xmlns="http://www.w3.org/2000/svg" xmlns:xlink="http://www.w3.org/1999/xlink" viewBox="-51.2 -51.2 614.40 614.40" xml:space="preserve" width="256px" height="256px" fill="#ffffff" stroke="#ffffff" stroke-width="0.00512">
<g id="SVGRepo_bgCarrier" stroke-width="0"/>
<g id="SVGRepo_tracerCarrier" stroke-linecap="round" stroke-linejoin="round" stroke="#e7dada" stroke-width="102.4"> <g> <path style="fill:#E30613;" d="M304.022,119.937h-96.045c-8.841,0-16.008-7.167-16.008-16.008l0,0 c0-8.841,7.167-16.008,16.008-16.008h96.045c8.841,0,16.008,7.167,16.008,16.008l0,0 C320.029,112.77,312.862,119.937,304.022,119.937z"/> <rect x="231.988" y="199.974" style="fill:#E30613;" width="48.022" height="24.011"/> </g> <path style="fill:#F9B233;" d="M256,504.115L256,504.115c-13.26,0-24.011-10.75-24.011-24.011V272.008 c0-13.26,10.75-24.011,24.011-24.011l0,0c13.26,0,24.011,10.75,24.011,24.011v208.097C280.011,493.365,269.26,504.115,256,504.115z"/> <g> <path style="fill:#1D1D1B;" d="M256,512c-17.588,0-31.896-14.309-31.896-31.896V272.008c0-17.588,14.309-31.895,31.896-31.895 s31.896,14.309,31.896,31.895v208.097C287.896,497.691,273.588,512,256,512z M256,255.881c-8.892,0-16.126,7.234-16.126,16.125 v208.097c0,8.892,7.234,16.126,16.126,16.126c8.892,0,16.126-7.234,16.126-16.126V272.008 C272.126,263.115,264.892,255.881,256,255.881z"/> <rect x="296.014" y="368.167" style="fill:#1D1D1B;" width="24.011" height="15.77"/> <rect x="191.974" y="368.167" style="fill:#1D1D1B;" width="24.011" height="15.77"/> <polygon style="fill:#1D1D1B;" points="351.926,47.903 336.156,47.903 336.156,0 392.063,0 392.063,15.77 351.926,15.77 "/> <rect x="360.051" y="24.011" style="fill:#1D1D1B;" width="56.026" height="15.77"/> <polygon style="fill:#1D1D1B;" points="175.844,47.903 160.074,47.903 160.074,15.77 119.937,15.77 119.937,0 175.844,0 "/> <rect x="95.924" y="24.011" style="fill:#1D1D1B;" width="56.026" height="15.77"/> <path style="fill:#1D1D1B;" d="M328.033,39.781v-15.77H183.967v15.77h64.148v40.256h-40.137c-13.174,0-23.893,10.718-23.893,23.893 s10.718,23.893,23.893,23.893h40.137v8.241h-32.133v15.77h32.133v40.256h-24.011v34.042c-14.499,10.111-24.01,26.899-24.01,45.877 v88.041h15.77v-88.041c0-22.132,18.005-40.137,40.137-40.137s40.137,18.005,40.137,40.137v88.041h15.77v-88.041 c0-18.978-9.512-35.765-24.01-45.877v-34.042h-24.011v-40.256h32.133v-15.77h-32.133v-8.241h40.137 c13.174,0,23.893-10.718,23.893-23.893s-10.718-23.893-23.893-23.893h-40.137V39.781L328.033,39.781L328.033,39.781z M272.126,218.481c-5.109-1.542-10.521-2.381-16.126-2.381c-5.606,0-11.017,0.839-16.126,2.381v-10.623h32.253V218.481z M207.978,112.052c-4.479,0-8.123-3.644-8.123-8.123c0-4.479,3.644-8.123,8.123-8.123h40.137v16.245 C248.115,112.052,207.978,112.052,207.978,112.052z M304.022,95.807c4.479,0,8.123,3.644,8.123,8.123 c0,4.479-3.644,8.123-8.123,8.123h-40.137V95.807H304.022z"/> <rect x="207.975" style="fill:#1D1D1B;" width="48.022" height="15.77"/> </g> </g>
<g id="SVGRepo_iconCarrier"> <g> <path style="fill:#E30613;" d="M304.022,119.937h-96.045c-8.841,0-16.008-7.167-16.008-16.008l0,0 c0-8.841,7.167-16.008,16.008-16.008h96.045c8.841,0,16.008,7.167,16.008,16.008l0,0 C320.029,112.77,312.862,119.937,304.022,119.937z"/> <rect x="231.988" y="199.974" style="fill:#E30613;" width="48.022" height="24.011"/> </g> <path style="fill:#F9B233;" d="M256,504.115L256,504.115c-13.26,0-24.011-10.75-24.011-24.011V272.008 c0-13.26,10.75-24.011,24.011-24.011l0,0c13.26,0,24.011,10.75,24.011,24.011v208.097C280.011,493.365,269.26,504.115,256,504.115z"/> <g> <path style="fill:#1D1D1B;" d="M256,512c-17.588,0-31.896-14.309-31.896-31.896V272.008c0-17.588,14.309-31.895,31.896-31.895 s31.896,14.309,31.896,31.895v208.097C287.896,497.691,273.588,512,256,512z M256,255.881c-8.892,0-16.126,7.234-16.126,16.125 v208.097c0,8.892,7.234,16.126,16.126,16.126c8.892,0,16.126-7.234,16.126-16.126V272.008 C272.126,263.115,264.892,255.881,256,255.881z"/> <rect x="296.014" y="368.167" style="fill:#1D1D1B;" width="24.011" height="15.77"/> <rect x="191.974" y="368.167" style="fill:#1D1D1B;" width="24.011" height="15.77"/> <polygon style="fill:#1D1D1B;" points="351.926,47.903 336.156,47.903 336.156,0 392.063,0 392.063,15.77 351.926,15.77 "/> <rect x="360.051" y="24.011" style="fill:#1D1D1B;" width="56.026" height="15.77"/> <polygon style="fill:#1D1D1B;" points="175.844,47.903 160.074,47.903 160.074,15.77 119.937,15.77 119.937,0 175.844,0 "/> <rect x="95.924" y="24.011" style="fill:#1D1D1B;" width="56.026" height="15.77"/> <path style="fill:#1D1D1B;" d="M328.033,39.781v-15.77H183.967v15.77h64.148v40.256h-40.137c-13.174,0-23.893,10.718-23.893,23.893 s10.718,23.893,23.893,23.893h40.137v8.241h-32.133v15.77h32.133v40.256h-24.011v34.042c-14.499,10.111-24.01,26.899-24.01,45.877 v88.041h15.77v-88.041c0-22.132,18.005-40.137,40.137-40.137s40.137,18.005,40.137,40.137v88.041h15.77v-88.041 c0-18.978-9.512-35.765-24.01-45.877v-34.042h-24.011v-40.256h32.133v-15.77h-32.133v-8.241h40.137 c13.174,0,23.893-10.718,23.893-23.893s-10.718-23.893-23.893-23.893h-40.137V39.781L328.033,39.781L328.033,39.781z M272.126,218.481c-5.109-1.542-10.521-2.381-16.126-2.381c-5.606,0-11.017,0.839-16.126,2.381v-10.623h32.253V218.481z M207.978,112.052c-4.479,0-8.123-3.644-8.123-8.123c0-4.479,3.644-8.123,8.123-8.123h40.137v16.245 C248.115,112.052,207.978,112.052,207.978,112.052z M304.022,95.807c4.479,0,8.123,3.644,8.123,8.123 c0,4.479-3.644,8.123-8.123,8.123h-40.137V95.807H304.022z"/> <rect x="207.975" style="fill:#1D1D1B;" width="48.022" height="15.77"/> </g> </g>
</svg>