<!DOCTYPE svg PUBLIC "-//W3C//DTD SVG 1.1//EN" "http://www.w3.org/Graphics/SVG/1.1/DTD/svg11.dtd">
<!-- Uploaded to: SVG Repo, www.svgrepo.com, Transformed by: SVG Repo Mixer Tools -->
<svg version="1.1" id="Layer_1" xmlns="http://www.w3.org/2000/svg" xmlns:xlink="http://www.w3.org/1999/xlink" viewBox="-50.2 -50.2 602.40 602.40" xml:space="preserve" width="256px" height="256px" fill="#000000" stroke="#000000" stroke-width="0.00502">
<g id="SVGRepo_bgCarrier" stroke-width="0"/>
<g id="SVGRepo_tracerCarrier" stroke-linecap="round" stroke-linejoin="round" stroke="#f5f5f5" stroke-width="100.4"> <g> <rect x="222.595" y="252.984" style="fill:#333333;" width="57.749" height="239.016"/> <rect x="356.597" y="298.605" style="fill:#FBB03B;" width="66.449" height="32.728"/> <rect x="78.955" y="371.996" style="fill:#FBB03B;" width="66.449" height="32.728"/> <rect x="227.667" y="107.193" style="fill:#FBB03B;" width="47.605" height="115.045"/> <g> <rect x="116.093" y="10" style="fill:#FBB03B;" width="74.383" height="27.77"/> <g> <rect x="312.463" y="10" style="fill:#FBB03B;" width="74.383" height="27.77"/> <g> <path d="M280.344,242.983h-57.749c-5.523,0-10,4.477-10,10V492c0,5.523,4.477,10,10,10h57.749c5.522,0,10-4.477,10-10V252.983 C290.344,247.46,285.866,242.983,280.344,242.983z M270.344,482h-37.749V262.983h37.749V482z"/> <path d="M305.235,401.667c-5.522,0-10,4.477-10,10v24.188c0,5.523,4.478,10,10,10s10-4.477,10-10v-24.188 C315.235,406.144,310.757,401.667,305.235,401.667z"/> <path d="M291.932,232.072c1.134,0,3.303,2.429,3.303,6.237v127.736c0,5.523,4.478,10,10,10s10-4.477,10-10V238.309 c0-14.467-10.453-26.237-23.303-26.237h-6.66V107.193c0-5.523-4.478-10-10-10h-47.604c-5.523,0-10,4.477-10,10v104.879h-6.66 c-12.849,0-23.303,11.77-23.303,26.237v197.546c0,5.523,4.477,10,10,10c5.523,0,10-4.477,10-10V238.309 c0-3.808,2.168-6.237,3.303-6.237H291.932z M237.667,117.193h27.604v94.879h-27.604V117.193L237.667,117.193z"/> <path d="M423.045,288.605h-66.448c-5.522,0-10,4.477-10,10v6.364h-11.818c-5.522,0-10,4.477-10,10s4.478,10,10,10h11.818v6.364 c0,5.523,4.478,10,10,10h66.448c5.522,0,10-4.477,10-10v-32.729C433.045,293.082,428.568,288.605,423.045,288.605z M413.045,321.333h-46.448v-12.729h46.448V321.333z"/> <path d="M167.169,378.36h-11.766v-6.364c0-5.523-4.477-10-10-10H78.955c-5.523,0-10,4.477-10,10v32.728c0,5.523,4.477,10,10,10 h66.449c5.523,0,10-4.477,10-10v-6.364h11.766c5.523,0,10-4.477,10-10S172.692,378.36,167.169,378.36z M135.404,394.724H88.955 v-12.728h46.449V394.724z"/> <path d="M116.093,47.77h74.383c5.523,0,10-4.477,10-10v-4.876h41.227V75.37c0,5.523,4.477,10,10,10c5.522,0,10-4.477,10-10 V32.893h40.761v4.876c0,5.523,4.478,10,10,10h74.383c5.522,0,10-4.477,10-10V10c0-5.523-4.478-10-10-10h-74.383 c-5.522,0-10,4.477-10,10v2.893H200.476V10c0-5.523-4.477-10-10-10h-74.383c-5.523,0-10,4.477-10,10v27.77 C106.093,43.292,110.57,47.77,116.093,47.77z M322.53,20h54.316v7.77h-54.383L322.53,20z M180.476,27.77h-54.383V20h54.316 L180.476,27.77z"/> </g> </g> </g> </g> </g>
<g id="SVGRepo_iconCarrier"> <g> <rect x="222.595" y="252.984" style="fill:#333333;" width="57.749" height="239.016"/> <rect x="356.597" y="298.605" style="fill:#FBB03B;" width="66.449" height="32.728"/> <rect x="78.955" y="371.996" style="fill:#FBB03B;" width="66.449" height="32.728"/> <rect x="227.667" y="107.193" style="fill:#FBB03B;" width="47.605" height="115.045"/> <g> <rect x="116.093" y="10" style="fill:#FBB03B;" width="74.383" height="27.77"/> <g> <rect x="312.463" y="10" style="fill:#FBB03B;" width="74.383" height="27.77"/> <g> <path d="M280.344,242.983h-57.749c-5.523,0-10,4.477-10,10V492c0,5.523,4.477,10,10,10h57.749c5.522,0,10-4.477,10-10V252.983 C290.344,247.46,285.866,242.983,280.344,242.983z M270.344,482h-37.749V262.983h37.749V482z"/> <path d="M305.235,401.667c-5.522,0-10,4.477-10,10v24.188c0,5.523,4.478,10,10,10s10-4.477,10-10v-24.188 C315.235,406.144,310.757,401.667,305.235,401.667z"/> <path d="M291.932,232.072c1.134,0,3.303,2.429,3.303,6.237v127.736c0,5.523,4.478,10,10,10s10-4.477,10-10V238.309 c0-14.467-10.453-26.237-23.303-26.237h-6.66V107.193c0-5.523-4.478-10-10-10h-47.604c-5.523,0-10,4.477-10,10v104.879h-6.66 c-12.849,0-23.303,11.77-23.303,26.237v197.546c0,5.523,4.477,10,10,10c5.523,0,10-4.477,10-10V238.309 c0-3.808,2.168-6.237,3.303-6.237H291.932z M237.667,117.193h27.604v94.879h-27.604V117.193L237.667,117.193z"/> <path d="M423.045,288.605h-66.448c-5.522,0-10,4.477-10,10v6.364h-11.818c-5.522,0-10,4.477-10,10s4.478,10,10,10h11.818v6.364 c0,5.523,4.478,10,10,10h66.448c5.522,0,10-4.477,10-10v-32.729C433.045,293.082,428.568,288.605,423.045,288.605z M413.045,321.333h-46.448v-12.729h46.448V321.333z"/> <path d="M167.169,378.36h-11.766v-6.364c0-5.523-4.477-10-10-10H78.955c-5.523,0-10,4.477-10,10v32.728c0,5.523,4.477,10,10,10 h66.449c5.523,0,10-4.477,10-10v-6.364h11.766c5.523,0,10-4.477,10-10S172.692,378.36,167.169,378.36z M135.404,394.724H88.955 v-12.728h46.449V394.724z"/> <path d="M116.093,47.77h74.383c5.523,0,10-4.477,10-10v-4.876h41.227V75.37c0,5.523,4.477,10,10,10c5.522,0,10-4.477,10-10 V32.893h40.761v4.876c0,5.523,4.478,10,10,10h74.383c5.522,0,10-4.477,10-10V10c0-5.523-4.478-10-10-10h-74.383 c-5.522,0-10,4.477-10,10v2.893H200.476V10c0-5.523-4.477-10-10-10h-74.383c-5.523,0-10,4.477-10,10v27.77 C106.093,43.292,110.57,47.77,116.093,47.77z M322.53,20h54.316v7.77h-54.383L322.53,20z M180.476,27.77h-54.383V20h54.316 L180.476,27.77z"/> </g> </g> </g> </g> </g>
</svg>