<!DOCTYPE svg PUBLIC "-//W3C//DTD SVG 1.1//EN" "http://www.w3.org/Graphics/SVG/1.1/DTD/svg11.dtd">
<!-- Uploaded to: SVG Repo, www.svgrepo.com, Transformed by: SVG Repo Mixer Tools -->
<svg height="256px" width="256px" version="1.1" id="Layer_1" xmlns="http://www.w3.org/2000/svg" xmlns:xlink="http://www.w3.org/1999/xlink" viewBox="-40.96 -40.96 593.92 593.92" xml:space="preserve" fill="#000000" stroke="#000000">
<g id="SVGRepo_bgCarrier" stroke-width="0"/>
<g id="SVGRepo_tracerCarrier" stroke-linecap="round" stroke-linejoin="round" stroke="#ffffff" stroke-width="54.272000000000006"> <path style="fill:#0084FF;" d="M208.589,176.364c0,3.815-3.093,6.908-6.908,6.908H118.8c-3.815,0-6.908-3.093-6.908-6.908v-23.848 c0-3.815,3.093-6.908,6.908-6.908h82.881c3.815,0,6.908,3.093,6.908,6.908V176.364z"/> <g> <path style="fill:#D50707;" d="M382.434,207.039c-65.788,0-119.118,53.331-119.118,119.118 c0,65.787,53.331,119.118,119.118,119.118s119.118-53.332,119.118-119.118C501.552,260.369,448.221,207.039,382.434,207.039z M382.434,408.846c-45.667,0-82.689-37.023-82.689-82.69s37.022-82.691,82.689-82.691s82.69,37.024,82.69,82.691 S428.101,408.846,382.434,408.846z"/> <path style="fill:#D50707;" d="M94.042,277.047c-46.167,0-83.592,37.425-83.592,83.592s37.425,83.592,83.592,83.592 s83.592-37.425,83.592-83.592S140.209,277.047,94.042,277.047z M94.042,412.885c-28.853,0-52.245-23.393-52.245-52.246 c0-28.853,23.392-52.246,52.245-52.246s52.245,23.393,52.245,52.246C146.287,389.491,122.895,412.885,94.042,412.885z"/> </g> <path style="fill:#0084FF;" d="M376.175,335.562c-4.583,0-9.124-2-12.22-5.847l-34.482-42.841c-2.241-2.785-3.464-6.253-3.464-9.827 V98.073h-50.155c-8.656,0-15.673-7.018-15.673-15.673s7.018-15.673,15.673-15.673h65.829c8.656,0,15.673,7.018,15.673,15.673 v189.122l31.018,38.538c5.427,6.744,4.36,16.611-2.382,22.038C383.096,334.428,379.623,335.562,376.175,335.562z"/> <circle style="fill:#042431;" cx="382.434" cy="326.155" r="24.085"/> <path d="M435.059,322.73c-4.681,0-8.942-3.168-10.128-7.916l-0.103-0.393c-1.492-5.575,1.816-11.304,7.391-12.797 c5.578-1.492,11.303,1.816,12.797,7.391c0.064,0.242,0.127,0.486,0.189,0.729c1.4,5.599-2.004,11.272-7.602,12.671 C436.751,322.629,435.898,322.73,435.059,322.73z"/> <path d="M382.895,389.845c-35.44,0-64.274-28.834-64.275-64.275c0-5.771,4.678-10.449,10.449-10.449 c5.77,0,10.449,4.678,10.449,10.449c0.001,23.918,19.459,43.377,43.377,43.377c17.311-0.001,32.945-10.267,39.827-26.156 c2.294-5.294,8.447-7.729,13.74-5.435c5.296,2.294,7.728,8.446,5.435,13.74C431.703,374.634,408.543,389.844,382.895,389.845z"/> <path d="M382.434,196.59c-4.886,0-9.773,0.284-14.629,0.833v-11.973c3.12-0.082,6.246-0.124,9.358-0.124 c28.806,0,57.951,3.455,86.64,10.271c1.192,0.282,2.416,0.424,3.636,0.424c7.383,0,13.72-5.032,15.406-12.234 c1.995-8.502-3.281-17.055-11.756-19.065c-31.132-7.398-62.748-11.149-93.972-11.149c-3.097,0-6.207,0.042-9.313,0.116V82.399 c0-14.404-11.719-26.122-26.122-26.122h-65.829c-14.404,0-26.122,11.719-26.122,26.122s11.719,26.122,26.122,26.122h39.706v50.053 c-33.472,5.517-65.254,15.508-94.584,29.773c-18.194,8.849-34.989,19.128-50.287,30.748V193.72h30.992 c9.57,0,17.357-7.787,17.357-17.357v-23.848c0-9.57-7.787-17.357-17.357-17.357h-82.881c-9.57,0-17.357,7.787-17.357,17.357v23.848 c0,9.57,7.787,17.357,17.357,17.357h30.992v42.962c-7.05,6.567-13.702,13.468-19.93,20.703c-3.586,4.165-6.989,8.422-10.247,12.747 c-8.135-2.302-16.711-3.535-25.572-3.535C42.187,266.597,0,308.784,0,360.638s42.187,94.041,94.041,94.041 s94.041-42.187,94.041-94.041c0-31.397-15.47-59.245-39.183-76.335c37.636-47.03,96.592-80.951,166.66-93.553v24.434 c-38.821,23.413-62.694,65.358-62.694,110.972c0,71.444,58.124,129.567,129.567,129.567S512,397.6,512,326.156 S453.878,196.59,382.434,196.59z M122.34,156.057h75.8v16.766h-75.8V156.057z M167.185,360.639 c0,40.331-32.812,73.143-73.143,73.143s-73.143-32.812-73.143-73.143s32.812-73.143,73.143-73.143c4.411,0,8.723,0.414,12.92,1.165 c-1.975,3.204-3.887,6.434-5.695,9.712c-2.373-0.274-4.78-0.429-7.225-0.429c-34.569,0-62.694,28.124-62.694,62.695 s28.124,62.695,62.694,62.695s62.694-28.124,62.694-62.695c0-20.69-10.078-39.062-25.578-50.487c1.75-3.011,3.575-5.985,5.482-8.913 C155.117,314.526,167.185,336.193,167.185,360.639z M90.562,375.888c1.195,0.282,2.419,0.424,3.637,0.424 c7.381,0,13.715-5.032,15.403-12.235c2.83-12.07,6.812-23.747,11.83-34.969c8.816,7.668,14.404,18.955,14.404,31.529 c0,23.047-18.75,41.797-41.796,41.797s-41.796-18.75-41.796-41.797c0-22.104,17.251-40.245,38.993-41.691 c-5.223,12.202-9.395,24.835-12.451,37.871C76.795,365.315,82.068,373.867,90.562,375.888z M319.446,290.706 c0.576,0.94,1.192,1.857,1.887,2.721l26.575,33.017c0.155,18.911,15.58,34.248,34.527,34.248c19.042,0,34.534-15.492,34.534-34.534 c0-17.416-12.962-31.855-29.746-34.194l-19.417-24.124v-12.426c4.798-0.988,9.692-1.499,14.629-1.499 c39.834,0,72.241,32.408,72.241,72.242c0,39.834-32.407,72.241-72.241,72.241c-39.833,0-72.24-32.407-72.24-72.241 C310.194,313.479,313.402,301.379,319.446,290.706z M382.434,312.521c7.518,0,13.636,6.117,13.636,13.636 c0,7.519-6.117,13.636-13.636,13.636s-13.636-6.117-13.636-13.636C368.798,318.638,374.916,312.521,382.434,312.521z M270.63,82.399 c0-2.881,2.344-5.224,5.224-5.224h16.718v10.449h-16.718C272.973,87.624,270.63,85.28,270.63,82.399z M313.47,87.624V77.175h28.212 c2.881,0,5.225,2.344,5.225,5.224v189.122c0,2.383,0.814,4.695,2.309,6.553l15.067,18.72c-2.983,1.852-5.661,4.145-7.95,6.787 l-18.72-23.258c-0.745-0.926-1.155-2.089-1.155-3.277V98.073c0-5.77-4.679-10.449-10.449-10.449H313.47z M382.434,434.826 c-59.921,0-108.669-48.749-108.669-108.669c0-33.834,15.65-65.27,41.796-85.673v20.876c-16.744,17.303-26.265,40.661-26.265,64.798 c0,51.357,41.781,93.139,93.138,93.139s93.139-41.781,93.139-93.139s-41.782-93.141-93.139-93.141c-4.916,0-9.805,0.385-14.629,1.15 V218.47c4.844-0.653,9.737-0.982,14.629-0.982c59.921,0,108.669,48.749,108.669,108.669S442.354,434.826,382.434,434.826z"/> </g>
<g id="SVGRepo_iconCarrier"> <path style="fill:#0084FF;" d="M208.589,176.364c0,3.815-3.093,6.908-6.908,6.908H118.8c-3.815,0-6.908-3.093-6.908-6.908v-23.848 c0-3.815,3.093-6.908,6.908-6.908h82.881c3.815,0,6.908,3.093,6.908,6.908V176.364z"/> <g> <path style="fill:#D50707;" d="M382.434,207.039c-65.788,0-119.118,53.331-119.118,119.118 c0,65.787,53.331,119.118,119.118,119.118s119.118-53.332,119.118-119.118C501.552,260.369,448.221,207.039,382.434,207.039z M382.434,408.846c-45.667,0-82.689-37.023-82.689-82.69s37.022-82.691,82.689-82.691s82.69,37.024,82.69,82.691 S428.101,408.846,382.434,408.846z"/> <path style="fill:#D50707;" d="M94.042,277.047c-46.167,0-83.592,37.425-83.592,83.592s37.425,83.592,83.592,83.592 s83.592-37.425,83.592-83.592S140.209,277.047,94.042,277.047z M94.042,412.885c-28.853,0-52.245-23.393-52.245-52.246 c0-28.853,23.392-52.246,52.245-52.246s52.245,23.393,52.245,52.246C146.287,389.491,122.895,412.885,94.042,412.885z"/> </g> <path style="fill:#0084FF;" d="M376.175,335.562c-4.583,0-9.124-2-12.22-5.847l-34.482-42.841c-2.241-2.785-3.464-6.253-3.464-9.827 V98.073h-50.155c-8.656,0-15.673-7.018-15.673-15.673s7.018-15.673,15.673-15.673h65.829c8.656,0,15.673,7.018,15.673,15.673 v189.122l31.018,38.538c5.427,6.744,4.36,16.611-2.382,22.038C383.096,334.428,379.623,335.562,376.175,335.562z"/> <circle style="fill:#042431;" cx="382.434" cy="326.155" r="24.085"/> <path d="M435.059,322.73c-4.681,0-8.942-3.168-10.128-7.916l-0.103-0.393c-1.492-5.575,1.816-11.304,7.391-12.797 c5.578-1.492,11.303,1.816,12.797,7.391c0.064,0.242,0.127,0.486,0.189,0.729c1.4,5.599-2.004,11.272-7.602,12.671 C436.751,322.629,435.898,322.73,435.059,322.73z"/> <path d="M382.895,389.845c-35.44,0-64.274-28.834-64.275-64.275c0-5.771,4.678-10.449,10.449-10.449 c5.77,0,10.449,4.678,10.449,10.449c0.001,23.918,19.459,43.377,43.377,43.377c17.311-0.001,32.945-10.267,39.827-26.156 c2.294-5.294,8.447-7.729,13.74-5.435c5.296,2.294,7.728,8.446,5.435,13.74C431.703,374.634,408.543,389.844,382.895,389.845z"/> <path d="M382.434,196.59c-4.886,0-9.773,0.284-14.629,0.833v-11.973c3.12-0.082,6.246-0.124,9.358-0.124 c28.806,0,57.951,3.455,86.64,10.271c1.192,0.282,2.416,0.424,3.636,0.424c7.383,0,13.72-5.032,15.406-12.234 c1.995-8.502-3.281-17.055-11.756-19.065c-31.132-7.398-62.748-11.149-93.972-11.149c-3.097,0-6.207,0.042-9.313,0.116V82.399 c0-14.404-11.719-26.122-26.122-26.122h-65.829c-14.404,0-26.122,11.719-26.122,26.122s11.719,26.122,26.122,26.122h39.706v50.053 c-33.472,5.517-65.254,15.508-94.584,29.773c-18.194,8.849-34.989,19.128-50.287,30.748V193.72h30.992 c9.57,0,17.357-7.787,17.357-17.357v-23.848c0-9.57-7.787-17.357-17.357-17.357h-82.881c-9.57,0-17.357,7.787-17.357,17.357v23.848 c0,9.57,7.787,17.357,17.357,17.357h30.992v42.962c-7.05,6.567-13.702,13.468-19.93,20.703c-3.586,4.165-6.989,8.422-10.247,12.747 c-8.135-2.302-16.711-3.535-25.572-3.535C42.187,266.597,0,308.784,0,360.638s42.187,94.041,94.041,94.041 s94.041-42.187,94.041-94.041c0-31.397-15.47-59.245-39.183-76.335c37.636-47.03,96.592-80.951,166.66-93.553v24.434 c-38.821,23.413-62.694,65.358-62.694,110.972c0,71.444,58.124,129.567,129.567,129.567S512,397.6,512,326.156 S453.878,196.59,382.434,196.59z M122.34,156.057h75.8v16.766h-75.8V156.057z M167.185,360.639 c0,40.331-32.812,73.143-73.143,73.143s-73.143-32.812-73.143-73.143s32.812-73.143,73.143-73.143c4.411,0,8.723,0.414,12.92,1.165 c-1.975,3.204-3.887,6.434-5.695,9.712c-2.373-0.274-4.78-0.429-7.225-0.429c-34.569,0-62.694,28.124-62.694,62.695 s28.124,62.695,62.694,62.695s62.694-28.124,62.694-62.695c0-20.69-10.078-39.062-25.578-50.487c1.75-3.011,3.575-5.985,5.482-8.913 C155.117,314.526,167.185,336.193,167.185,360.639z M90.562,375.888c1.195,0.282,2.419,0.424,3.637,0.424 c7.381,0,13.715-5.032,15.403-12.235c2.83-12.07,6.812-23.747,11.83-34.969c8.816,7.668,14.404,18.955,14.404,31.529 c0,23.047-18.75,41.797-41.796,41.797s-41.796-18.75-41.796-41.797c0-22.104,17.251-40.245,38.993-41.691 c-5.223,12.202-9.395,24.835-12.451,37.871C76.795,365.315,82.068,373.867,90.562,375.888z M319.446,290.706 c0.576,0.94,1.192,1.857,1.887,2.721l26.575,33.017c0.155,18.911,15.58,34.248,34.527,34.248c19.042,0,34.534-15.492,34.534-34.534 c0-17.416-12.962-31.855-29.746-34.194l-19.417-24.124v-12.426c4.798-0.988,9.692-1.499,14.629-1.499 c39.834,0,72.241,32.408,72.241,72.242c0,39.834-32.407,72.241-72.241,72.241c-39.833,0-72.24-32.407-72.24-72.241 C310.194,313.479,313.402,301.379,319.446,290.706z M382.434,312.521c7.518,0,13.636,6.117,13.636,13.636 c0,7.519-6.117,13.636-13.636,13.636s-13.636-6.117-13.636-13.636C368.798,318.638,374.916,312.521,382.434,312.521z M270.63,82.399 c0-2.881,2.344-5.224,5.224-5.224h16.718v10.449h-16.718C272.973,87.624,270.63,85.28,270.63,82.399z M313.47,87.624V77.175h28.212 c2.881,0,5.225,2.344,5.225,5.224v189.122c0,2.383,0.814,4.695,2.309,6.553l15.067,18.72c-2.983,1.852-5.661,4.145-7.95,6.787 l-18.72-23.258c-0.745-0.926-1.155-2.089-1.155-3.277V98.073c0-5.77-4.679-10.449-10.449-10.449H313.47z M382.434,434.826 c-59.921,0-108.669-48.749-108.669-108.669c0-33.834,15.65-65.27,41.796-85.673v20.876c-16.744,17.303-26.265,40.661-26.265,64.798 c0,51.357,41.781,93.139,93.138,93.139s93.139-41.781,93.139-93.139s-41.782-93.141-93.139-93.141c-4.916,0-9.805,0.385-14.629,1.15 V218.47c4.844-0.653,9.737-0.982,14.629-0.982c59.921,0,108.669,48.749,108.669,108.669S442.354,434.826,382.434,434.826z"/> </g>
</svg>