<!DOCTYPE svg PUBLIC "-//W3C//DTD SVG 1.1//EN" "http://www.w3.org/Graphics/SVG/1.1/DTD/svg11.dtd">
<!-- Uploaded to: SVG Repo, www.svgrepo.com, Transformed by: SVG Repo Mixer Tools -->
<svg version="1.1" id="Layer_1" xmlns="http://www.w3.org/2000/svg" xmlns:xlink="http://www.w3.org/1999/xlink" viewBox="-43.22 -43.22 518.68 518.68" xml:space="preserve" width="256px" height="256px" fill="#ffffff">
<g id="SVGRepo_bgCarrier" stroke-width="0"/>
<g id="SVGRepo_tracerCarrier" stroke-linecap="round" stroke-linejoin="round" stroke="#ffffff" stroke-width="77.80266"> <g> <rect x="248.571" y="242.812" style="fill:#f75555;" width="41.995" height="15"/> <path style="fill:#f75555;" d="M176.167,373.349h-34.495v-15h26.995v-65.867h15v73.367 C183.667,369.991,180.309,373.349,176.167,373.349z"/> <path style="fill:#0056b3;" d="M216.119,120.737c-4.142,0-7.5-3.358-7.5-7.5V60.535c0-4.142,3.358-7.5,7.5-7.5s7.5,3.358,7.5,7.5 v52.703C223.619,117.379,220.261,120.737,216.119,120.737z"/> <path style="fill:#0056b3;" d="M197.72,42.136h-32.801c-2.508,0-4.85-1.253-6.24-3.34l-14.446-21.669H63.634v-15h84.612 c2.508,0,4.85,1.253,6.24,3.34l14.446,21.669h28.787L197.72,42.136L197.72,42.136z"/> <path style="fill:#0056b3;" d="M267.318,42.136h-32.801v-15h28.787L277.75,5.467c1.391-2.086,3.732-3.34,6.24-3.34h84.612v15 h-80.599l-14.446,21.669C272.168,40.883,269.826,42.136,267.318,42.136z"/> <circle style="fill:#04529a;" cx="216.119" cy="34.635" r="34.635"/> <circle style="fill:#f75555;" cx="216.119" cy="34.635" r="17.5"/> <g> <path style="fill:#f75555;" d="M110.017,39.134H76.184v-11h29.967l7.33-20.37l10.351,3.725l-8.639,24.007 C114.407,37.679,112.337,39.134,110.017,39.134z"/> <path style="fill:#f75555;" d="M356.053,39.134H322.22c-2.319,0-4.39-1.455-5.175-3.638l-8.639-24.007l10.351-3.725l7.33,20.37 h29.967v11H356.053z"/> </g> <path style="fill:#0056b3;" d="M256.071,307.482h-23.755c-4.142,0-7.5-3.358-7.5-7.5s3.358-7.5,7.5-7.5h16.255V190.923 c0-17.894-14.558-32.452-32.452-32.452s-32.452,14.558-32.452,32.452v101.559h16.255c4.142,0,7.5,3.358,7.5,7.5s-3.358,7.5-7.5,7.5 h-23.755c-4.142,0-7.5-3.358-7.5-7.5V190.923c0-26.165,21.287-47.452,47.452-47.452s47.452,21.287,47.452,47.452v109.059 C263.571,304.124,260.213,307.482,256.071,307.482z"/> <path style="fill:#0056b3;" d="M241.119,155.017h-15v-34.28h-20v34.28h-15v-41.78c0-4.142,3.358-7.5,7.5-7.5h35 c4.142,0,7.5,3.358,7.5,7.5V155.017z"/> <rect x="301.122" y="2.127" style="fill:#f75555;" width="67.481" height="15"/> <rect x="63.634" y="2.127" style="fill:#f75555;" width="67.481" height="15"/> <path style="fill:#2e2e2e;" d="M216.119,432.237c-12.791,0-23.197-10.406-23.197-23.197V190.923 c0-12.791,10.406-23.197,23.197-23.197s23.197,10.406,23.197,23.197V409.04C239.316,421.831,228.909,432.237,216.119,432.237z"/> </g> </g>
<g id="SVGRepo_iconCarrier"> <g> <rect x="248.571" y="242.812" style="fill:#f75555;" width="41.995" height="15"/> <path style="fill:#f75555;" d="M176.167,373.349h-34.495v-15h26.995v-65.867h15v73.367 C183.667,369.991,180.309,373.349,176.167,373.349z"/> <path style="fill:#0056b3;" d="M216.119,120.737c-4.142,0-7.5-3.358-7.5-7.5V60.535c0-4.142,3.358-7.5,7.5-7.5s7.5,3.358,7.5,7.5 v52.703C223.619,117.379,220.261,120.737,216.119,120.737z"/> <path style="fill:#0056b3;" d="M197.72,42.136h-32.801c-2.508,0-4.85-1.253-6.24-3.34l-14.446-21.669H63.634v-15h84.612 c2.508,0,4.85,1.253,6.24,3.34l14.446,21.669h28.787L197.72,42.136L197.72,42.136z"/> <path style="fill:#0056b3;" d="M267.318,42.136h-32.801v-15h28.787L277.75,5.467c1.391-2.086,3.732-3.34,6.24-3.34h84.612v15 h-80.599l-14.446,21.669C272.168,40.883,269.826,42.136,267.318,42.136z"/> <circle style="fill:#04529a;" cx="216.119" cy="34.635" r="34.635"/> <circle style="fill:#f75555;" cx="216.119" cy="34.635" r="17.5"/> <g> <path style="fill:#f75555;" d="M110.017,39.134H76.184v-11h29.967l7.33-20.37l10.351,3.725l-8.639,24.007 C114.407,37.679,112.337,39.134,110.017,39.134z"/> <path style="fill:#f75555;" d="M356.053,39.134H322.22c-2.319,0-4.39-1.455-5.175-3.638l-8.639-24.007l10.351-3.725l7.33,20.37 h29.967v11H356.053z"/> </g> <path style="fill:#0056b3;" d="M256.071,307.482h-23.755c-4.142,0-7.5-3.358-7.5-7.5s3.358-7.5,7.5-7.5h16.255V190.923 c0-17.894-14.558-32.452-32.452-32.452s-32.452,14.558-32.452,32.452v101.559h16.255c4.142,0,7.5,3.358,7.5,7.5s-3.358,7.5-7.5,7.5 h-23.755c-4.142,0-7.5-3.358-7.5-7.5V190.923c0-26.165,21.287-47.452,47.452-47.452s47.452,21.287,47.452,47.452v109.059 C263.571,304.124,260.213,307.482,256.071,307.482z"/> <path style="fill:#0056b3;" d="M241.119,155.017h-15v-34.28h-20v34.28h-15v-41.78c0-4.142,3.358-7.5,7.5-7.5h35 c4.142,0,7.5,3.358,7.5,7.5V155.017z"/> <rect x="301.122" y="2.127" style="fill:#f75555;" width="67.481" height="15"/> <rect x="63.634" y="2.127" style="fill:#f75555;" width="67.481" height="15"/> <path style="fill:#2e2e2e;" d="M216.119,432.237c-12.791,0-23.197-10.406-23.197-23.197V190.923 c0-12.791,10.406-23.197,23.197-23.197s23.197,10.406,23.197,23.197V409.04C239.316,421.831,228.909,432.237,216.119,432.237z"/> </g> </g>
</svg>