<!DOCTYPE svg PUBLIC "-//W3C//DTD SVG 1.1//EN" "http://www.w3.org/Graphics/SVG/1.1/DTD/svg11.dtd">
<!-- Uploaded to: SVG Repo, www.svgrepo.com, Transformed by: SVG Repo Mixer Tools -->
<svg height="256px" width="256px" version="1.1" id="Layer_1" xmlns="http://www.w3.org/2000/svg" xmlns:xlink="http://www.w3.org/1999/xlink" viewBox="0 0 512.00 512.00" xml:space="preserve" fill="#000000" transform="rotate(0)matrix(1, 0, 0, 1, 0, 0)" stroke="#000000" stroke-width="0.00512">
<g id="SVGRepo_bgCarrier" stroke-width="0"/>
<g id="SVGRepo_tracerCarrier" stroke-linecap="round" stroke-linejoin="round" stroke="#CCCCCC" stroke-width="11.264"/>
<g id="SVGRepo_iconCarrier"> <path style="fill:#00ff33;" d="M404.242,378.338H41.754c-18.128,0-32.824-14.696-32.824-32.824V166.538 c0-18.128,14.696-32.824,32.824-32.824h66.005h29.767h332.72c18.128,0,32.824,14.696,32.824,32.824v178.976 c0,18.128-14.696,32.824-32.824,32.824h-36.238L404.242,378.338L404.242,378.338z"/> <path style="fill:#F2F2F2;" d="M503.073,166.532v178.986c0,18.122-14.705,32.816-32.828,32.816H238.715l74.276-244.617h157.255 C488.368,133.717,503.073,148.41,503.073,166.532z"/> <path d="M470.247,124.758H137.526c-4.932,0-8.93,3.998-8.93,8.93s3.998,8.93,8.93,8.93h332.721 c13.174,0,23.893,10.719,23.893,23.894v178.976c0,13.175-10.719,23.894-23.893,23.894h-36.238c-4.933,0-8.93,3.998-8.93,8.93 c0,4.932,3.997,8.93,8.93,8.93h36.238c23.023,0,41.753-18.731,41.753-41.754V166.512C512,143.489,493.27,124.758,470.247,124.758z"/> <path d="M404.242,369.382H41.754c-13.175,0-23.894-10.719-23.894-23.894V166.512c0-13.175,10.719-23.894,23.894-23.894h66.004 c4.932,0,8.93-3.998,8.93-8.93s-3.998-8.93-8.93-8.93H41.754C18.731,124.758,0,143.489,0,166.512v178.976 c0,23.023,18.731,41.754,41.754,41.754h362.488c4.933,0,8.93-3.998,8.93-8.93C413.172,373.38,409.175,369.382,404.242,369.382z"/> <path d="M91.219,236.151v39.699c0,20.45,16.638,37.088,37.088,37.088s37.088-16.638,37.088-37.088v-39.699 c0-20.45-16.638-37.088-37.088-37.088S91.219,215.701,91.219,236.151z M109.08,236.151c0-10.602,8.625-19.227,19.227-19.227 s19.227,8.625,19.227,19.227v39.699c0,10.602-8.625,19.227-19.227,19.227s-19.227-8.625-19.227-19.227V236.151z"/> <path d="M198.897,304.008v-34.461h21.074c19.432,0,35.242-15.809,35.242-35.242s-15.81-35.242-35.242-35.242h-30.004 c-4.932,0-8.93,3.998-8.93,8.93v96.014c0,4.932,3.998,8.93,8.93,8.93C194.898,312.937,198.897,308.94,198.897,304.008z M198.897,216.924h21.074c9.584,0,17.382,7.798,17.382,17.382s-7.798,17.382-17.382,17.382h-21.074L198.897,216.924L198.897,216.924 z"/> <path d="M319.588,216.924c4.933,0,8.93-3.998,8.93-8.93s-3.997-8.93-8.93-8.93h-44.084c-4.933,0-8.93,3.998-8.93,8.93v96.014 c0,4.932,3.997,8.93,8.93,8.93h44.084c4.933,0,8.93-3.998,8.93-8.93c0-4.932-3.997-8.93-8.93-8.93h-35.154V264.93h19.227 c4.933,0,8.93-3.998,8.93-8.93s-3.997-8.93-8.93-8.93h-19.227v-30.147h35.154V216.924z"/> <path d="M411.85,199.063c-4.933,0-8.93,3.998-8.93,8.93v63.138l-39.682-67.657c-2.04-3.476-6.155-5.156-10.045-4.1 c-3.89,1.056-6.589,4.588-6.589,8.618v96.014c0,4.932,3.997,8.93,8.93,8.93c4.933,0,8.93-3.998,8.93-8.93V240.87l39.682,67.657 c1.632,2.781,4.591,4.413,7.704,4.413c0.776,0,1.563-0.102,2.341-0.313c3.89-1.056,6.589-4.588,6.589-8.618v-96.014 C420.781,203.06,416.783,199.063,411.85,199.063z"/> <circle cx="469.123" cy="344.064" r="8.93"/> <circle cx="469.123" cy="167.936" r="8.93"/> <circle cx="42.865" cy="167.936" r="8.93"/> <circle cx="42.865" cy="344.064" r="8.93"/> </g>
</svg>