<!DOCTYPE svg PUBLIC "-//W3C//DTD SVG 1.1//EN" "http://www.w3.org/Graphics/SVG/1.1/DTD/svg11.dtd">
<!-- Uploaded to: SVG Repo, www.svgrepo.com, Transformed by: SVG Repo Mixer Tools -->
<svg height="256px" width="256px" version="1.1" id="Layer_1" xmlns="http://www.w3.org/2000/svg" xmlns:xlink="http://www.w3.org/1999/xlink" viewBox="-40.38 -40.38 585.56 585.56" xml:space="preserve" fill="#000000" stroke="#000000" stroke-width="0.005048">
<g id="SVGRepo_bgCarrier" stroke-width="0"/>
<g id="SVGRepo_tracerCarrier" stroke-linecap="round" stroke-linejoin="round" stroke="#f0f0f0" stroke-width="70.672"> <path style="fill:#ff4c38;" d="M252.4,498.4C267.2,489.2,440,376.8,440,193.6C440,90,355.6,6,252.4,6S64.8,90.4,64.8,193.6 C64.8,377.2,237.6,489.2,252.4,498.4z M124,242c-12.8-34.4-11.6-71.6,3.2-104.8c22-48.8,71.2-80.8,124.8-80.8 c19.6,0,38.4,4,56.4,12.4c20.4,9.2,36,23.6,49.6,40.8l20,36c12.8,34.4,13.6,71.2-1.2,104.4c-22,48.8-71.2,80.8-124.8,80.8 c-19.6,0-38.4-4-56.4-12C162.8,303.6,137.2,276.4,124,242z"/> <path style="fill:#cb3b25;" d="M252.4,326.8c52.4,0,100-30.8,121.2-78.4c14.4-32.4,17.2-69.6,4.8-102.8l-20-35.6 c-13.2-16.8-31.6-28.8-51.6-38c-17.2-8-36-12-54.8-12c-52.4,0-100,30.8-121.2,78.4c-14.8,32.4-15.6,68.4-3.2,102 c12.4,33.2,37.2,59.6,69.6,74.4C214.8,322.8,233.2,326.8,252.4,326.8z M150.8,193.6c0-56,45.6-101.6,101.6-101.6 S354,137.6,354,193.6s-45.6,101.6-101.6,101.6S150.8,249.6,150.8,193.6z"/> <path d="M252.4,504.8c-0.8,0-1.6,0-2-0.4c-2-1.2-191.6-116.4-191.6-310.8C58.8,86.8,145.6,0,252.4,0S446,86.8,446,193.6 c0,194.4-189.6,309.6-191.6,310.8C254,504.8,253.2,504.8,252.4,504.8z M252.4,8C150,8,66.8,91.2,66.8,193.6 C66.8,372.4,232,483.2,252.4,496C272.8,483.2,438,372.4,438,193.6C438,91.2,354.8,8,252.4,8z"/> <path d="M252,332.8c-19.2,0-38.4-4-57.2-12.4c-70-31.6-101.2-114-69.6-184c31.6-70,114-101.2,184-69.6C329.6,76,348,90.4,361.6,108 c1.2,1.6,1.2,4.4-0.8,5.6c-1.6,1.2-4.4,1.2-5.6-0.8c-12.8-16.8-30-30-49.6-38.8c-66-29.6-143.6-0.4-173.6,65.6 c-29.6,66-0.4,143.6,65.6,173.6c66,29.6,143.6,0.4,173.6-65.6c14.4-31.6,15.6-67.2,3.2-99.6c-0.8-2,0.4-4.4,2.4-5.2 c2-0.8,4.4,0.4,5.2,2.4c12.8,34.8,11.6,72.4-3.6,106C356,302.4,305.2,332.8,252,332.8z"/> <path d="M252.4,297.2c-57.2,0-103.6-46.4-103.6-103.6S195.2,90,252.4,90C309.6,90,356,136.4,356,193.6S309.6,297.2,252.4,297.2z M252.4,98c-52.8,0-95.6,42.8-95.6,95.6c0,52.8,42.8,95.6,95.6,95.6s95.6-42.8,95.6-95.6S305.2,98,252.4,98z"/> </g>
<g id="SVGRepo_iconCarrier"> <path style="fill:#ff4c38;" d="M252.4,498.4C267.2,489.2,440,376.8,440,193.6C440,90,355.6,6,252.4,6S64.8,90.4,64.8,193.6 C64.8,377.2,237.6,489.2,252.4,498.4z M124,242c-12.8-34.4-11.6-71.6,3.2-104.8c22-48.8,71.2-80.8,124.8-80.8 c19.6,0,38.4,4,56.4,12.4c20.4,9.2,36,23.6,49.6,40.8l20,36c12.8,34.4,13.6,71.2-1.2,104.4c-22,48.8-71.2,80.8-124.8,80.8 c-19.6,0-38.4-4-56.4-12C162.8,303.6,137.2,276.4,124,242z"/> <path style="fill:#cb3b25;" d="M252.4,326.8c52.4,0,100-30.8,121.2-78.4c14.4-32.4,17.2-69.6,4.8-102.8l-20-35.6 c-13.2-16.8-31.6-28.8-51.6-38c-17.2-8-36-12-54.8-12c-52.4,0-100,30.8-121.2,78.4c-14.8,32.4-15.6,68.4-3.2,102 c12.4,33.2,37.2,59.6,69.6,74.4C214.8,322.8,233.2,326.8,252.4,326.8z M150.8,193.6c0-56,45.6-101.6,101.6-101.6 S354,137.6,354,193.6s-45.6,101.6-101.6,101.6S150.8,249.6,150.8,193.6z"/> <path d="M252.4,504.8c-0.8,0-1.6,0-2-0.4c-2-1.2-191.6-116.4-191.6-310.8C58.8,86.8,145.6,0,252.4,0S446,86.8,446,193.6 c0,194.4-189.6,309.6-191.6,310.8C254,504.8,253.2,504.8,252.4,504.8z M252.4,8C150,8,66.8,91.2,66.8,193.6 C66.8,372.4,232,483.2,252.4,496C272.8,483.2,438,372.4,438,193.6C438,91.2,354.8,8,252.4,8z"/> <path d="M252,332.8c-19.2,0-38.4-4-57.2-12.4c-70-31.6-101.2-114-69.6-184c31.6-70,114-101.2,184-69.6C329.6,76,348,90.4,361.6,108 c1.2,1.6,1.2,4.4-0.8,5.6c-1.6,1.2-4.4,1.2-5.6-0.8c-12.8-16.8-30-30-49.6-38.8c-66-29.6-143.6-0.4-173.6,65.6 c-29.6,66-0.4,143.6,65.6,173.6c66,29.6,143.6,0.4,173.6-65.6c14.4-31.6,15.6-67.2,3.2-99.6c-0.8-2,0.4-4.4,2.4-5.2 c2-0.8,4.4,0.4,5.2,2.4c12.8,34.8,11.6,72.4-3.6,106C356,302.4,305.2,332.8,252,332.8z"/> <path d="M252.4,297.2c-57.2,0-103.6-46.4-103.6-103.6S195.2,90,252.4,90C309.6,90,356,136.4,356,193.6S309.6,297.2,252.4,297.2z M252.4,98c-52.8,0-95.6,42.8-95.6,95.6c0,52.8,42.8,95.6,95.6,95.6s95.6-42.8,95.6-95.6S305.2,98,252.4,98z"/> </g>
</svg>