<!DOCTYPE svg PUBLIC "-//W3C//DTD SVG 1.1//EN" "http://www.w3.org/Graphics/SVG/1.1/DTD/svg11.dtd">
<!-- Uploaded to: SVG Repo, www.svgrepo.com, Transformed by: SVG Repo Mixer Tools -->
<svg version="1.1" id="Layer_1" xmlns="http://www.w3.org/2000/svg" xmlns:xlink="http://www.w3.org/1999/xlink" viewBox="0 0 512 512" xml:space="preserve" width="800px" height="800px" fill="#000000">
<g id="SVGRepo_bgCarrier" stroke-width="0"/>
<g id="SVGRepo_tracerCarrier" stroke-linecap="round" stroke-linejoin="round"/>
<g id="SVGRepo_iconCarrier"> <g> <polygon style="fill:#ff0000;" points="371.613,437.677 371.613,481.72 338.581,481.72 338.581,437.677 355.097,411.681 "/> <polygon style="fill:#ff0000;" points="173.419,437.677 173.419,481.72 140.387,481.72 140.387,437.677 156.903,411.681 "/> </g> <g> <path style="fill:#ff7575;" d="M173.419,437.677V292.335c0-31.33-14.543-59.259-37.243-77.419l-70.042-55.938 c-15.789-12.632-24.845-31.448-24.845-51.624c0-36.428,29.637-66.065,66.065-66.065c15.159,0,29.411,4.992,41.218,14.438 l165.162,132.13c15.791,12.633,24.846,31.449,24.846,51.625v198.194h33.032V239.484c0-31.33-14.543-59.259-37.243-77.419 L169.209,29.936c-16.953-13.563-38.454-21.678-61.854-21.678c-54.73,0-99.097,44.367-99.097,99.097 c0,31.33,14.543,59.259,37.243,77.419l70.04,55.938c15.791,12.633,24.846,31.449,24.846,51.625v145.342h33.032V437.677z"/> <polygon style="fill:#ff7575;" points="503.742,437.677 503.742,481.72 470.71,481.72 470.71,437.677 487.226,411.681 "/> </g> <polygon style="fill:#7a90ff;" points="503.742,470.71 503.742,503.742 470.71,503.742 443.183,487.226 470.71,470.71 "/> <polygon style="fill:#ff7575;" points="305.548,437.677 305.548,481.72 272.516,481.72 272.516,437.677 289.032,411.681 "/> <rect x="8.258" y="470.71" style="fill:#ffe5e5;" width="462.452" height="33.032"/> <path style="fill:#7a90ff;" d="M305.548,437.677V292.335c0-31.33-14.543-59.259-37.243-77.419l-70.042-55.938 c-15.789-12.632-24.845-31.448-24.845-51.624c0-36.428,29.637-66.065,66.065-66.065c15.159,0,29.411,4.992,41.218,14.438 l165.162,132.13c15.791,12.633,24.846,31.449,24.846,51.625v198.194h33.032V239.484c0-31.33-14.543-59.259-37.243-77.419 L301.338,29.936c-16.953-13.563-38.454-21.678-61.854-21.678c-54.73,0-99.097,44.367-99.097,99.097 c0,31.33,14.543,59.259,37.243,77.419l70.04,55.938c15.791,12.633,24.846,31.449,24.846,51.625v145.342h33.032V437.677z"/> <path d="M330.323,437.677c0,4.562,3.696,8.258,8.258,8.258s8.258-3.696,8.258-8.258V239.484c0-22.699-10.186-43.866-27.945-58.073 L211.985,95.884c-3.561-2.85-8.759-2.27-11.608,1.289c-2.85,3.561-2.272,8.758,1.289,11.608l106.908,85.527 c13.822,11.057,21.748,27.522,21.748,45.176V437.677z"/> <path d="M471.658,155.617L306.496,23.488C287.566,8.342,263.767,0,239.484,0c-24.885,0-47.819,8.512-66.045,22.778 C154.658,8.092,131.246,0,107.355,0C48.159,0,0,48.159,0,107.355c0,32.788,14.704,63.357,40.348,83.871l70.035,55.934 c13.82,11.057,21.746,27.522,21.746,45.176v145.342c0,4.562,3.697,8.258,8.258,8.258s8.258-3.696,8.258-8.258V292.335 c0-22.699-10.185-43.866-27.951-58.077l-70.035-55.934c-21.699-17.36-34.143-43.226-34.143-70.97 c0-50.088,40.75-90.839,90.839-90.839c19.588,0,38.081,6.071,53.724,17.591c-3.765,4.027-7.225,8.341-10.341,12.909 c-12.672-9.155-27.589-13.984-43.382-13.984c-40.982,0-74.323,33.341-74.323,74.323c0,22.699,10.185,43.866,27.95,58.077 l70.036,55.934c21.699,17.36,34.143,43.226,34.143,70.97v170.116H8.258c-4.561,0-8.258,3.696-8.258,8.258v33.032 C0,508.304,3.697,512,8.258,512h495.484c4.562,0,8.258-3.696,8.258-8.258V239.484C512,206.695,497.296,176.127,471.658,155.617z M141.33,208.464l-70.035-55.934c-13.82-11.056-21.746-27.522-21.746-45.176c0-31.874,25.931-57.806,57.806-57.806 c12.858,0,24.964,4.116,35.101,11.895c-6.617,13.928-10.327,29.493-10.327,45.912c0,32.788,14.704,63.357,40.348,83.871 l70.035,55.934c13.82,11.057,21.746,27.522,21.746,45.176v170.116h-82.581V292.335C181.677,259.548,166.974,228.979,141.33,208.464z M495.484,495.484H16.516v-16.516h478.968V495.484z M273.459,208.464l-70.035-55.934c-13.82-11.056-21.746-27.522-21.746-45.176 c0-31.874,25.931-57.806,57.806-57.806c13.264,0,25.732,4.367,36.058,12.629l165.162,132.13 c13.821,11.057,21.747,27.522,21.747,45.176v222.968h-82.581V239.484c0-32.789-14.704-63.357-40.342-83.867L232.664,70.125 c-3.562-2.85-8.758-2.272-11.608,1.289c-2.85,3.561-2.272,8.758,1.289,11.608l106.864,85.492 c21.7,17.358,34.145,43.226,34.145,70.97v222.968h-49.548V292.335C313.806,259.547,299.103,228.979,273.459,208.464z M495.484,462.452h-16.516V239.484c0-22.699-10.186-43.866-27.945-58.073L285.86,49.281c-13.286-10.63-29.323-16.249-46.376-16.249 c-40.982,0-74.323,33.341-74.323,74.323c0,22.699,10.185,43.866,27.95,58.077l70.035,55.934 c21.699,17.358,34.144,43.226,34.144,70.97v170.116h-16.516V292.335c0-22.699-10.186-43.866-27.951-58.077l-70.035-55.934 c-21.699-17.36-34.143-43.227-34.143-70.97c0-50.088,40.75-90.839,90.839-90.839c20.844,0,40.448,6.871,56.694,19.869 L461.34,168.514c21.699,17.358,34.144,43.226,34.144,70.97V462.452z"/> </g>
</svg>